<svg width="24" height="28" viewBox="0 0 24 28" fill="none" xmlns="http://www.w3.org/2000/svg">
<g clip-path="url(#clip0_2003_2)">
<path d="M6.68 26V9.2H14.624C16.48 9.2 18.112 9.544 19.52 10.232C20.928 10.92 22.024 11.888 22.808 13.136C23.608 14.384 24.008 15.872 24.008 17.6C24.008 19.312 23.608 20.8 22.808 22.064C22.024 23.312 20.928 24.28 19.52 24.968C18.112 25.656 16.48 26 14.624 26H6.68ZM11.432 22.208H14.432C15.392 22.208 16.224 22.032 16.928 21.68C17.648 21.312 18.208 20.784 18.608 20.096C19.008 19.392 19.208 18.56 19.208 17.6C19.208 16.624 19.008 15.792 18.608 15.104C18.208 14.416 17.648 13.896 16.928 13.544C16.224 13.176 15.392 12.992 14.432 12.992H11.432V22.208ZM29.3881 26L24.7561 12.992H29.0761L32.7481 23.864H30.6841L34.5001 12.992H38.3881L42.0601 23.864H40.0441L43.8361 12.992H47.8441L43.2121 26H38.7961L35.6761 17H37.0201L33.8041 26H29.3881ZM55.7019 26.216C54.1659 26.216 52.8219 25.928 51.6699 25.352C50.5339 24.76 49.6459 23.96 49.0059 22.952C48.3819 21.928 48.0699 20.768 48.0699 19.472C48.0699 18.176 48.3739 17.024 48.9819 16.016C49.6059 14.992 50.4619 14.2 51.5499 13.64C52.6379 13.064 53.8619 12.776 55.2219 12.776C56.5019 12.776 57.6699 13.04 58.7259 13.568C59.7819 14.08 60.6219 14.84 61.2459 15.848C61.8699 16.856 62.1819 18.08 62.1819 19.52C62.1819 19.68 62.1739 19.864 62.1579 20.072C62.1419 20.28 62.1259 20.472 62.1099 20.648H51.8139V18.248H59.6859L57.9579 18.92C57.9739 18.328 57.8619 17.816 57.6219 17.384C57.3979 16.952 57.0779 16.616 56.6619 16.376C56.2619 16.136 55.7899 16.016 55.2459 16.016C54.7019 16.016 54.2219 16.136 53.8059 16.376C53.4059 16.616 53.0939 16.96 52.8699 17.408C52.6459 17.84 52.5339 18.352 52.5339 18.944V19.64C52.5339 20.28 52.6619 20.832 52.9179 21.296C53.1899 21.76 53.5739 22.12 54.0699 22.376C54.5659 22.616 55.1579 22.736 55.8459 22.736C56.4859 22.736 57.0299 22.648 57.4779 22.472C57.9419 22.28 58.3979 21.992 58.8459 21.608L61.2459 24.104C60.6219 24.792 59.8539 25.32 58.9419 25.688C58.0299 26.04 56.9499 26.216 55.7019 26.216ZM64.2843 26V8.192H68.8443V26H64.2843ZM71.8078 26V8.192H76.3678V26H71.8078ZM85.8592 26.216C84.4352 26.216 83.1712 25.928 82.0672 25.352C80.9632 24.776 80.0912 23.984 79.4512 22.976C78.8272 21.952 78.5152 20.784 78.5152 19.472C78.5152 18.16 78.8272 17 79.4512 15.992C80.0912 14.984 80.9632 14.2 82.0672 13.64C83.1712 13.064 84.4352 12.776 85.8592 12.776C87.2832 12.776 88.5472 13.064 89.6512 13.64C90.7712 14.2 91.6432 14.984 92.2672 15.992C92.8912 17 93.2032 18.16 93.2032 19.472C93.2032 20.784 92.8912 21.952 92.2672 22.976C91.6432 23.984 90.7712 24.776 89.6512 25.352C88.5472 25.928 87.2832 26.216 85.8592 26.216ZM85.8592 22.592C86.3872 22.592 86.8512 22.472 87.2512 22.232C87.6672 21.992 87.9952 21.64 88.2352 21.176C88.4752 20.696 88.5952 20.128 88.5952 19.472C88.5952 18.816 88.4752 18.264 88.2352 17.816C87.9952 17.352 87.6672 17 87.2512 16.76C86.8512 16.52 86.3872 16.4 85.8592 16.4C85.3472 16.4 84.8832 16.52 84.4672 16.76C84.0672 17 83.7392 17.352 83.4832 17.816C83.2432 18.264 83.1232 18.816 83.1232 19.472C83.1232 20.128 83.2432 20.696 83.4832 21.176C83.7392 21.64 84.0672 21.992 84.4672 22.232C84.8832 22.472 85.3472 22.592 85.8592 22.592Z" fill="#2A1B12"/>
<line x1="1.89469" y1="28.1235" x2="1.89469" y2="7.91301" stroke="#2A1B12" stroke-width="3.78947"/>
<line y1="6.01835" x2="24" y2="6.01835" stroke="#2A1B12" stroke-width="3.78947"/>
<line y1="1.13031" x2="14.6957" y2="1.13031" stroke="#2A1B12" stroke-width="2.26087"/>
</g>
<defs>
<clipPath id="clip0_2003_2">
<rect width="24" height="28" fill="white"/>
</clipPath>
</defs>
</svg>
